# File created by Blade
# Date/Time:  Wed Jan 21 15:55:51 2015
# Frame Rate: 120.000 fps
#------------------------------------------------------
:FULLY-SPECIFIED
:DEGREES
366
root 24.103619 21.515464 -13.190182 -143.479222 15.269516 -190.728312
Spine 59.468674 -0.673626 -8.549274
Head -16.768535 1.516655 -3.661840
LeftShoulder 30.754532 -48.476781 -8.966548
LeftArm 34.677759 12.959073 -59.719778
LeftForeArm -34.072525 -0.000000 11.082408
LeftHand -5.874357 0.000000 5.606472
LeftHandThumb1 -26.253704 0.000000 33.147579
RightShoulder 14.591043 5.592687 -20.460671
RightArm 44.813270 -0.685468 15.096964
RightForeArm -15.343273 -0.000000 34.007937
RightHand -13.467742 0.000000 -17.282593
RightHandThumb1 -24.326973 -0.000000 -32.862282
LeftUpLeg -28.868206 44.775665 19.632082
LeftLeg -4.178790 -0.000000 0.000000
LeftFoot -5.091892 16.458146 -28.693478
LeftToeBase 39.671586 -0.000000 -0.000000
RightUpLeg -111.538172 -12.471012 3.816630
RightLeg 108.678164 -0.000000 -0.000000
RightFoot -61.857745 -30.098707 34.367458
RightToeBase 21.370609 -0.000000 -0.000000
367
root 24.145439 21.299276 -13.249999 -144.207902 15.125614 -191.007193
Spine 59.511110 -0.827937 -8.681706
Head -16.410891 1.513310 -3.747659
LeftShoulder 29.685191 -47.351056 -8.406218
LeftArm 35.588793 14.072314 -58.666198
LeftForeArm -35.123889 0.000000 11.347588
LeftHand -5.896614 0.000000 5.666078
LeftHandThumb1 -26.253704 0.000000 33.147579
RightShoulder 14.642578 5.127909 -20.437328
RightArm 44.800160 -0.894971 15.291405
RightForeArm -15.352147 -0.000000 34.542497
RightHand -13.540219 -0.000000 -17.555408
RightHandThumb1 -24.326973 -0.000000 -32.862282
LeftUpLeg -28.011272 44.906895 19.994091
LeftLeg -4.360585 -0.000000 0.000000
LeftFoot -5.559291 15.806801 -28.911481
LeftToeBase 39.536324 -0.000000 -0.000000
RightUpLeg -111.430641 -12.738141 3.643654
RightLeg 109.735698 -0.000000 -0.000000
RightFoot -62.292262 -30.053489 34.517645
RightToeBase 21.492621 -0.000000 -0.000000
368
root 24.182712 21.079888 -13.307899 -144.875216 15.005286 -191.297330
Spine 59.486163 -0.900394 -8.774179
Head -16.130797 1.475448 -3.701800
LeftShoulder 28.988067 -46.607742 -8.021384
LeftArm 35.922824 14.854210 -58.228211
LeftForeArm -35.668032 -0.000000 11.686563
LeftHand -6.051751 -0.000000 5.367834
LeftHandThumb1 -26.253704 0.000000 33.147579
RightShoulder 14.544231 4.644560 -20.332611
RightArm 44.822504 -1.120660 15.518591
RightForeArm -15.514434 -0.000000 35.089962
RightHand -13.631354 -0.000000 -17.906199
RightHandThumb1 -24.326973 -0.000000 -32.862282
LeftUpLeg -27.212879 45.125609 20.255731
LeftLeg -4.632392 -0.000000 0.000000
LeftFoot -5.824810 15.205554 -28.725771
LeftToeBase 39.561825 -0.000000 -0.000000
RightUpLeg -111.444628 -12.997086 3.480477
RightLeg 110.813628 -0.000000 -0.000000
RightFoot -62.653620 -29.827839 34.845460
RightToeBase 21.510311 -0.000000 -0.000000
369
root 24.224594 20.856803 -13.368128 -145.551031 14.886350 -191.455998
Spine 59.522671 -0.911032 -8.770436
Head -15.886787 1.485899 -3.652300
LeftShoulder 28.326493 -46.034511 -7.684951
LeftArm 36.090608 15.296056 -58.273310
LeftForeArm -35.848544 -0.000000 11.928532
LeftHand -5.799167 -0.000000 5.436534
LeftHandThumb1 -26.253704 0.000000 33.147579
RightShoulder 14.408785 4.179154 -20.203427
RightArm 44.870874 -1.249083 15.840732
RightForeArm -15.707223 -0.000000 35.635416
RightHand -13.612073 -0.000000 -18.216799
RightHandThumb1 -24.326973 -0.000000 -32.862282
LeftUpLeg -26.172129 45.398475 20.865582
LeftLeg -4.962354 -0.000000 0.000000
LeftFoot -5.752748 14.375214 -28.382179
LeftToeBase 39.463143 -0.000000 -0.000000
RightUpLeg -111.348046 -13.153375 3.378751
RightLeg 111.861160 -0.000000 -0.000000
RightFoot -63.074652 -29.744524 35.075809
RightToeBase 21.222605 -0.000000 -0.000000
370
root 24.265788 20.632239 -13.428191 -146.230247 14.759198 -191.652386
Spine 59.543091 -0.909663 -8.747620
Head -15.622000 1.406506 -3.575871
LeftShoulder 27.824776 -45.538906 -7.415768
LeftArm 36.036059 15.646912 -58.443670
LeftForeArm -35.854475 0.000000 12.340842
LeftHand -5.838986 0.000000 5.643590
LeftHandThumb1 -26.253704 0.000000 33.147579
RightShoulder 14.245027 3.732555 -20.061186
RightArm 44.860019 -1.385474 16.266467
RightForeArm -15.984933 -0.000000 36.181669
RightHand -13.504666 0.000000 -18.656651
RightHandThumb1 -24.326973 -0.000000 -32.862282
LeftUpLeg -25.073363 45.607081 21.502069
LeftLeg -5.396510 -0.000000 0.000000
LeftFoot -5.538572 13.944373 -27.991181
LeftToeBase 39.398388 -0.000000 -0.000000
RightUpLeg -111.250084 -13.295880 3.184227
RightLeg 112.922801 -0.000000 -0.000000
RightFoot -63.486145 -29.646271 35.369707
RightToeBase 21.138870 -0.000000 -0.000000
371
root 24.305413 20.413309 -13.480570 -146.821046 14.647478 -191.825481
Spine 59.486314 -0.908114 -8.754565
Head -15.337645 1.403268 -3.448480
LeftShoulder 27.240278 -44.987370 -7.058869
LeftArm 36.043400 15.911022 -58.630742
LeftForeArm -35.801788 -0.000000 12.736893
LeftHand -5.910338 -0.000000 5.741684
LeftHandThumb1 -26.253704 0.000000 33.147579
RightShoulder 14.101056 3.510409 -19.845420
RightArm 44.806265 -1.709164 16.734754
RightForeArm -16.307764 0.000000 36.706184
RightHand -13.445155 0.000000 -19.094413
RightHandThumb1 -24.326973 -0.000000 -32.862282
LeftUpLeg -24.183682 45.947421 22.008811
LeftLeg -5.751336 -0.000000 0.000000
LeftFoot -5.272234 13.653063 -27.446329
LeftToeBase 39.712551 -0.000000 -0.000000
RightUpLeg -111.287609 -13.467803 3.144057
RightLeg 113.948836 -0.000000 -0.000000
RightFoot -63.796281 -29.556763 35.549801
RightToeBase 21.357475 -0.000000 -0.000000
